<?xml version="1.0" encoding="utf-8"?>
<!-- Generator: Adobe Illustrator 23.0.5, SVG Export Plug-In . SVG Version: 6.00 Build 0)  -->
<svg version="1.1" id="Layer_1" xmlns="http://www.w3.org/2000/svg" xmlns:xlink="http://www.w3.org/1999/xlink" x="0px" y="0px"
	 viewBox="0 0 18 18" style="enable-background:new 0 0 18 18;" xml:space="preserve">
<style type="text/css">
	.st0{fill:#4E4E4E;}
</style>
<g>
	<path class="st0" d="M9,14.6c-1.2,0-2.4,0-3.5-0.1c-0.8,0-1.7-0.1-2.5-0.2c-1-0.2-1.7-0.9-1.9-1.9C1,11.5,1,10.6,1,9.8S1,8,1,7.1
		c0-0.6,0.1-1.2,0.2-1.8C1.4,4.5,2.1,3.8,3,3.7c0.8-0.1,1.7-0.2,2.5-0.2c1,0,2,0,2.9-0.1c0.8,0,1.7,0,2.5,0c1.2,0,2.3,0.1,3.4,0.2
		c0.3,0,0.6,0.1,1,0.1c0.8,0.2,1.3,0.8,1.5,1.6C16.9,6.2,17,7,17,7.9c0.1,1.2,0,2.3-0.1,3.4c0,0.5-0.1,0.9-0.2,1.4
		c-0.1,0.8-0.9,1.5-1.7,1.6c-0.8,0.1-1.7,0.2-2.5,0.2C11.3,14.5,10.1,14.6,9,14.6z M7.5,11.5c1.3-0.8,2.7-1.7,4-2.5
		c-1.4-0.8-2.7-1.7-4-2.5C7.5,8.2,7.5,9.8,7.5,11.5z"/>
</g>
</svg>
