<?xml version="1.0" encoding="utf-8"?>
<!-- Generator: Adobe Illustrator 23.0.5, SVG Export Plug-In . SVG Version: 6.00 Build 0)  -->
<svg version="1.1" id="Layer_1" xmlns="http://www.w3.org/2000/svg" xmlns:xlink="http://www.w3.org/1999/xlink" x="0px" y="0px"
	 viewBox="0 0 18 18" style="enable-background:new 0 0 18 18;" xml:space="preserve">
<style type="text/css">
	.st0{fill:#4E4E4E;}
</style>
<path class="st0" d="M1.9,13.5c1.5,0.1,2.9-0.2,4.1-1.1c-1.2-0.3-2.2-0.8-2.6-2.1c0.4,0,0.7,0,1,0c-1.2-0.6-2-1.5-2-2.9
	c0.4,0.1,0.8,0.2,1.1,0.3C2.8,6.9,2.4,6,2.4,4.9c0-0.4,0.2-0.8,0.4-1.2c1.6,1.8,3.7,2.7,6,3c0-0.4,0-0.8,0.1-1.1
	C9,4.5,9.7,3.8,10.8,3.4c1.1-0.4,2.1-0.2,2.9,0.6C13.8,4,14,4.1,14.1,4c0.5-0.2,1-0.4,1.6-0.6c-0.1,0.6-0.5,1-0.9,1.5
	c0.4-0.1,0.8-0.2,1.2-0.3c0,0,0.1,0.1,0.1,0.1c-0.4,0.4-0.7,0.8-1.1,1.2c-0.2,0.2-0.3,0.4-0.3,0.6c0,1.2-0.2,2.4-0.7,3.5
	c-1.2,2.8-3.3,4.2-6.2,4.7c-1.9,0.3-3.8,0-5.5-1c-0.1-0.1-0.2-0.1-0.3-0.2C2,13.6,2,13.5,1.9,13.5z"/>
</svg>
