<svg xmlns="http://www.w3.org/2000/svg" xmlns:xlink="http://www.w3.org/1999/xlink" width="25.896" height="35.59" viewBox="0 0 25.896 35.59"><defs><style>.a{fill:#ecc983;}.b{clip-path:url(#a);}</style><clipPath id="a"><rect class="a" width="25.896" height="35.59" transform="translate(0 0)"/></clipPath></defs><g class="b" transform="translate(0 0)"><path class="a" d="M16.27,3.925C15.44,2.715,14.707,1.6,14.023.589A1.464,1.464,0,0,0,13.632.2a1.281,1.281,0,0,0-1.758.388C11.238,1.6,10.5,2.667,9.626,3.925,5.766,9.532,0,17.992,0,22.826a12.685,12.685,0,0,0,3.811,9.042,13.126,13.126,0,0,0,9.137,3.721,12.962,12.962,0,0,0,9.136-3.769A12.694,12.694,0,0,0,25.9,22.778c0-4.834-5.766-13.246-9.626-18.853m4.056,26.155a10.385,10.385,0,0,1-7.378,3,10.594,10.594,0,0,1-7.379-3,10.174,10.174,0,0,1-3.03-7.3c0-4.061,5.522-12.133,9.186-17.5.44-.628.83-1.256,1.223-1.791.391.534.782,1.163,1.221,1.791,3.664,5.415,9.186,13.438,9.186,17.5a10.376,10.376,0,0,1-3.03,7.3" transform="translate(0 0)"/><path class="a" d="M17.457,17.545a1.248,1.248,0,0,0-1.319,1.161,6.182,6.182,0,0,1-.929,2.948,5.918,5.918,0,0,1-2.248,2.127,1.26,1.26,0,0,0-.488,1.693A1.283,1.283,0,0,0,14.231,26a8.4,8.4,0,0,0,3.128-3,8.171,8.171,0,0,0,1.27-4.158,1.242,1.242,0,0,0-1.173-1.3" transform="translate(3.064 4.364)"/></g></svg>