<?xml version="1.0" encoding="utf-8"?>
<!-- Generator: Adobe Illustrator 25.2.1, SVG Export Plug-In . SVG Version: 6.00 Build 0)  -->
<svg version="1.1" id="Camada_1" xmlns="http://www.w3.org/2000/svg" xmlns:xlink="http://www.w3.org/1999/xlink" x="0px" y="0px"
	 viewBox="0 0 40 40" style="enable-background:new 0 0 40 40;" xml:space="preserve">
<style type="text/css">
	.st0{fill:#C99723;stroke:#C89724;stroke-width:0.3;}
</style>
<path id="_008-sugar-cane_1_" class="st0" d="M17.32,28.24c0-0.31-0.25-0.55-0.55-0.55c-0.31,0-0.55,0.25-0.55,0.55
	c0,0.31,0.25,0.55,0.55,0.55l0,0C17.08,28.8,17.32,28.55,17.32,28.24z M14.49,24.9c0-0.31-0.25-0.55-0.55-0.55s-0.55,0.25-0.55,0.55
	c0,0.31,0.25,0.55,0.55,0.55h0C14.24,25.45,14.49,25.2,14.49,24.9z M37.32,3.61c-0.78-0.89-1.68-1.65-2.69-2.26
	c-1.74-1.07-3.31-1.48-4.2-1.08c-0.36,0.15-0.62,0.47-0.7,0.85c0,0.02-0.01,0.04-0.02,0.06l-0.99,5.6c-0.1,0.58-0.31,1.14-0.61,1.65
	c-0.15,0.26-0.19,0.57-0.1,0.85c-0.18,0.24-0.26,0.54-0.2,0.84c0.11,0.58,0.11,1.17,0.01,1.76l-0.75,4.22l-0.16-0.94
	c-0.1-0.58-0.1-1.18,0.01-1.76c0.06-0.3-0.02-0.6-0.2-0.84c0.09-0.29,0.05-0.59-0.1-0.85c-0.3-0.51-0.51-1.07-0.61-1.65l-0.96-5.46
	c0-0.02-0.01-0.04-0.01-0.06c-0.08-0.38-0.34-0.7-0.7-0.85c-0.89-0.4-2.45,0.01-4.2,1.08c-1.01,0.61-1.91,1.38-2.69,2.26
	c-0.64,0.63-1.01,1.48-1,2.38l0.4,2.26c0.1,0.58,0.1,1.18-0.01,1.76c-0.06,0.3,0.02,0.6,0.2,0.84c-0.09,0.29-0.05,0.6,0.11,0.85
	c0.3,0.51,0.51,1.07,0.61,1.65l1.06,6.07l-1.04-1.31c-1.44-1.82-4.08-2.12-5.9-0.68c-0.25,0.2-0.48,0.43-0.68,0.68l-2.49,3.14
	c-2.44,3.08-4.51,6.44-6.16,10.01l-1.12,2.41c-0.36,0.77-0.02,1.69,0.75,2.04c0.2,0.09,0.42,0.14,0.65,0.14h1
	c0.32,0,0.57-0.26,0.57-0.57c0-0.32-0.26-0.57-0.57-0.57h-1c-0.22,0-0.39-0.18-0.39-0.39c0-0.06,0.01-0.11,0.04-0.16l1.12-2.41
	c1.61-3.48,3.63-6.77,6.02-9.78l2.48-3.13c1.05-1.32,2.97-1.55,4.29-0.5c0.18,0.15,0.35,0.31,0.5,0.5l2.48,3.13
	c0.12,0.15,0.24,0.3,0.35,0.45l0,0c2.23,2.88,4.13,6.01,5.66,9.32l0.56,1.21l0,0l0.56,1.2c0.09,0.2,0.01,0.43-0.19,0.52
	c-0.05,0.02-0.11,0.04-0.17,0.04H6.46c-0.32,0-0.57,0.26-0.57,0.57c0,0.32,0.26,0.57,0.57,0.57h19.68c0.85,0,1.54-0.69,1.54-1.54
	c0-0.22-0.05-0.45-0.14-0.65l-0.24-0.53l2.64-0.47c0.58-0.1,0.96-0.66,0.86-1.24c-0.02-0.12-0.07-0.24-0.13-0.35
	c-0.14-0.23-0.26-0.48-0.36-0.73l2.37,0.42c0.58,0.1,1.13-0.29,1.23-0.87c0.02-0.12,0.02-0.25,0-0.37
	c-0.11-0.58-0.11-1.17-0.01-1.76L35,24.89c0.1-0.58,0.31-1.14,0.61-1.65c0.15-0.26,0.19-0.57,0.1-0.85c0.18-0.24,0.25-0.55,0.2-0.84
	c-0.11-0.58-0.11-1.17-0.01-1.76l0.5-2.86c0.05-0.31-0.15-0.61-0.47-0.66c-0.31-0.05-0.61,0.15-0.66,0.47l-0.5,2.86
	c-0.12,0.68-0.12,1.37-0.01,2.05l-6.91-1.22l-0.21-1.2c0.09-0.28,0.16-0.56,0.21-0.85l1.11-6.29c0.12-0.68,0.12-1.37,0-2.05
	l7.6,1.34c-0.34,0.6-0.57,1.25-0.69,1.93l-0.13,0.76c-0.05,0.31,0.15,0.61,0.47,0.66c0.31,0.05,0.61-0.15,0.66-0.47l0,0L37,13.5
	c0.1-0.58,0.31-1.14,0.61-1.65c0.15-0.26,0.19-0.57,0.1-0.85c0.18-0.24,0.25-0.55,0.2-0.84c-0.11-0.58-0.11-1.17-0.01-1.76l0.43-2.4
	l0,0C38.32,5.11,37.96,4.25,37.32,3.61L37.32,3.61z M17.64,9.28c-0.05-0.02-0.05-0.03-0.06-0.06c-0.1-0.56,1.09-2.18,3.17-3.47
	c1.65-1.02,2.79-1.16,3.13-1.01c0.05,0.02,0.05,0.03,0.06,0.06l0,0c0.1,0.56-1.09,2.18-3.17,3.47C19.11,9.29,17.97,9.43,17.64,9.28z
	 M17.98,11.48l-0.18-1h0.16c1.22-0.11,2.4-0.53,3.41-1.23c1.01-0.61,1.91-1.37,2.69-2.26c0.07-0.08,0.14-0.17,0.21-0.26l0.62,3.53
	c0.12,0.68,0.35,1.33,0.69,1.93l-7.6,1.35c0.11-0.68,0.11-1.37-0.01-2.04L17.98,11.48z M20.26,24.66l-0.2-0.25
	c0.04-0.51,0.02-1.03-0.07-1.54l-1.11-6.29c-0.12-0.68-0.35-1.33-0.69-1.93l7.6-1.34c-0.11,0.68-0.11,1.37,0.01,2.05l1.11,6.29
	c0.12,0.68,0.35,1.33,0.69,1.93l-7.19,1.27L20.26,24.66z M34.56,22.76c-0.34,0.6-0.57,1.25-0.69,1.93l-1.11,6.29
	c-0.12,0.68-0.13,1.37-0.01,2.05l-2.76-0.49l-1.06-5.98c-0.1-0.58-0.1-1.18,0.01-1.76c0.06-0.3-0.02-0.6-0.2-0.84
	c0.09-0.29,0.05-0.59-0.1-0.85c-0.27-0.46-0.47-0.96-0.58-1.48L34.56,22.76z M27.79,24.71c-0.11,0.68-0.11,1.37,0.01,2.05l1.11,6.29
	c0.12,0.68,0.35,1.33,0.69,1.93l-2.82,0.49l-0.37-0.8c-1.44-3.1-3.18-6.05-5.22-8.79L27.79,24.71z M36.77,8.2
	c-0.12,0.68-0.12,1.37-0.01,2.05l-7.6-1.34c0.34-0.6,0.57-1.25,0.69-1.93l0.65-3.68c0.07,0.09,0.14,0.18,0.21,0.26
	c0.78,0.89,1.68,1.65,2.69,2.26c1.01,0.7,2.18,1.12,3.41,1.23h0.16L36.77,8.2z M37.2,5.79L37.2,5.79c0,0.03-0.01,0.04-0.06,0.06
	C36.81,6,35.67,5.86,34.02,4.84c-2.08-1.28-3.27-2.91-3.17-3.47c0-0.03,0.01-0.04,0.06-0.06c0.1-0.04,0.21-0.06,0.32-0.05
	c1.01,0.11,1.97,0.48,2.8,1.06C36.11,3.61,37.3,5.24,37.2,5.79L37.2,5.79z M19.94,35.01c0-0.31-0.25-0.55-0.55-0.55
	c-0.31,0-0.55,0.25-0.55,0.55c0,0.3,0.25,0.55,0.55,0.55C19.7,35.56,19.94,35.32,19.94,35.01C19.94,35.01,19.94,35.01,19.94,35.01z
	 M7.16,36.18c0-0.3-0.25-0.55-0.55-0.55c-0.3,0-0.55,0.25-0.55,0.55s0.25,0.55,0.55,0.55c0.15,0,0.28-0.06,0.39-0.16
	C7.1,36.47,7.16,36.33,7.16,36.18z M9.24,31.06c0-0.31-0.25-0.55-0.55-0.55c-0.31,0-0.55,0.25-0.55,0.55c0,0.31,0.25,0.55,0.55,0.55
	c0,0,0,0,0,0C8.99,31.61,9.24,31.37,9.24,31.06z M11.55,34.45c-0.12,0-0.21,0.1-0.21,0.22c0,0.12,0.1,0.21,0.22,0.21
	s0.21-0.1,0.21-0.22C11.77,34.55,11.68,34.46,11.55,34.45L11.55,34.45z"/>
</svg>
