<svg xmlns="http://www.w3.org/2000/svg" viewBox="0 0 40 40"><path d="M39.6,28.28c-.79-1.24-2.71-2.11-5.7-2.59a7.94,7.94,0,0,0,1-3.78,7.81,7.81,0,0,0-2-5.22c-3-3.32-6.26-6.54-9.57-9.57a7.79,7.79,0,0,0-9-1.09,16.18,16.18,0,0,0-.56-2.47.58.58,0,1,0-1.11.35,17.85,17.85,0,0,1,.6,2.83c-.14.11-.27.21-.4.33a72.56,72.56,0,0,0-5.61,5.62,4,4,0,0,0-.33.39c-2.88-.4-4.8-1.16-5.43-2.14a1.48,1.48,0,0,1-.12-1.31,1.61,1.61,0,0,1,.84-1.06A3.79,3.79,0,0,1,5,9a.59.59,0,0,0,.77-.79C5.21,7,5.13,6,5.59,5.51s1.49-.38,2.7.2A.6.6,0,0,0,9,5.6a.58.58,0,0,0,.12-.66A3.9,3.9,0,0,1,8.64,2,1.63,1.63,0,0,1,9.7,1.19C10.2,1,11.85.89,12.59,4c.63.11.29-.07.56-.25s.78.28.59,0c-.9-3.92-3.5-4-4.4-3.7A2.75,2.75,0,0,0,7.57,1.56a3.85,3.85,0,0,0,0,2.63,2.81,2.81,0,0,0-2.79.49,2.81,2.81,0,0,0-.5,2.79,3.82,3.82,0,0,0-2.62,0A2.75,2.75,0,0,0,.16,9.26,2.62,2.62,0,0,0,.4,11.57c.79,1.24,2.71,2.1,5.7,2.59a7.82,7.82,0,0,0,1.09,9c3,3.32,6.26,6.54,9.57,9.57.74.67,1.59,2,5.44,2,.3.11-.76-.47-.65-.78s.91-.28.6-.39c-3.16.13-3.72-1-4.27-1.46a65.09,65.09,0,0,1,15.64-8.76,6.58,6.58,0,0,1-1.54,3,73.84,73.84,0,0,1-5.53,5.52,6.51,6.51,0,0,1-4.7,1.69.58.58,0,0,0-.61.56.57.57,0,0,0,.56.61H22a7.75,7.75,0,0,0,3.73-1c.49,3,1.36,4.91,2.59,5.7a2.51,2.51,0,0,0,1.37.4,3.17,3.17,0,0,0,.94-.15,2.73,2.73,0,0,0,1.77-1.49,3.82,3.82,0,0,0,0-2.62,2.48,2.48,0,0,0,3.29-3.29,3.82,3.82,0,0,0,2.62,0,2.72,2.72,0,0,0,1.48-1.77,2.6,2.6,0,0,0-.24-2.3Zm-26-20.34a6.65,6.65,0,0,1,8.9,0l.58.54A66.19,66.19,0,0,0,6.39,16.94,6.62,6.62,0,0,1,8,13.47a75.92,75.92,0,0,1,5.53-5.53ZM6.35,18.41A63.82,63.82,0,0,1,24,9.44q1.72,1.62,3.41,3.3a65.33,65.33,0,0,0-19,10.07c-.14-.14-.27-.29-.41-.44a6.62,6.62,0,0,1-1.71-4Zm2.92,5.27a63.33,63.33,0,0,1,19.07-10q1.64,1.66,3.21,3.37A64.56,64.56,0,0,0,12.64,27.16q-1.73-1.72-3.37-3.48ZM17,31.35c-1.19-1.1-2.37-2.22-3.52-3.36a64.27,64.27,0,0,1,18.9-10,6.67,6.67,0,0,1,1.3,3.91s0,.1,0,.15A66,66,0,0,0,17,31.35Zm21.73-1.13a1.61,1.61,0,0,1-.84,1.06,3.88,3.88,0,0,1-2.9-.43.59.59,0,0,0-.66.12.58.58,0,0,0-.11.66c.57,1.21.65,2.25.19,2.7s-1.49.39-2.7-.19a.58.58,0,0,0-.78.77,3.88,3.88,0,0,1,.43,2.9,1.6,1.6,0,0,1-1.06.84A1.51,1.51,0,0,1,29,38.53c-1-.62-1.74-2.54-2.14-5.42l.4-.33a76.27,76.27,0,0,0,5.61-5.62q.18-.19.33-.39c2.88.4,4.8,1.15,5.43,2.13A1.51,1.51,0,0,1,38.73,30.22Z"/></svg>