<svg xmlns="http://www.w3.org/2000/svg" xmlns:xlink="http://www.w3.org/1999/xlink" width="36.308" height="35.275" viewBox="0 0 36.308 35.275"><defs><style>.a{fill:#ecc983;}.b{clip-path:url(#a);}</style><clipPath id="a"><rect class="a" width="36.308" height="35.275"/></clipPath></defs><g class="b"><path class="a" d="M34.81,13.633a5.773,5.773,0,0,1-2.129.08,7.544,7.544,0,0,0-3.047.245q.369-.479.732-.967a.431.431,0,0,0,.04-.055c.518-.7,1.017-1.411,1.485-2.122a.539.539,0,0,0,.06-.1c.485-.738.934-1.475,1.334-2.2a.577.577,0,0,0,.095-.172A21.675,21.675,0,0,0,34.524,5.96a.616.616,0,0,0,.068-.171c.836-2.172.976-4.006-.065-5.048A1.047,1.047,0,0,0,34.4.632C32.623-.9,28.8.491,24.5,3.336c-.012.009-.024.014-.036.023-.7.464-1.411.965-2.128,1.5a.524.524,0,0,0-.074.054c-1.328.99-2.672,2.086-4,3.253a.239.239,0,0,0-.033.03q-.958.845-1.895,1.729l-.005.005c-.174.164-.348.332-.521.5.951-2.861.723-5.05-.693-6.414a1.218,1.218,0,0,0-2.056,1.03c.146,1.152-.024,3.59-2.562,7.46-.064-.145-.128-.287-.2-.432-.082-.171-.168-.339-.258-.511s-.194-.35-.294-.525l-.04-.071a2.427,2.427,0,0,0-.248-.375.909.909,0,0,0-1.6.741c.226,1.762-.018,5.317-4.143,9.442C.511,24,.419,26.789,1.01,28.668l-.3.3a2.433,2.433,0,0,0,0,3.444l2.151,2.155a2.435,2.435,0,0,0,3.443,0l.682-.681a6.3,6.3,0,0,0,.981.086c2.152,0,4.341-1.1,6.523-3.28,1.879-1.879,3.556-2.725,4.986-2.518,1.2.178,2.276,1.129,3.191,2.83a1.216,1.216,0,0,0,2.278-.471A8.2,8.2,0,0,0,21.787,22.9c6.225-4.458,7.445-4.776,9.392-5.268.566-.144,1.207-.3,2.037-.585a10.355,10.355,0,0,0,2.562-1.229,1.191,1.191,0,0,0,.423-1.482,1.205,1.205,0,0,0-1.392-.7M18.84,9.273a7.87,7.87,0,0,1,2.049,1.294q-.437.418-.875.848a11.288,11.288,0,0,0-2.028-1.367q.429-.394.854-.775m1.918-1.642a9.52,9.52,0,0,1,1.906,1.257q-.443.412-.892.835A12.5,12.5,0,0,0,19.839,8.4q.462-.4.918-.77m2.006-1.584a11.637,11.637,0,0,1,1.7,1.181c-.3.269-.6.544-.909.827A13.807,13.807,0,0,0,21.785,6.8q.5-.391.979-.754Zm2.1-1.5A14.008,14.008,0,0,1,26.312,5.6q-.452.391-.926.807a15.261,15.261,0,0,0-1.557-1.143q.529-.377,1.038-.72ZM27.1,3.161c.351.246.722.53,1.1.853q-.475.387-.953.791c-.446-.373-.872-.7-1.274-.976.385-.241.758-.463,1.122-.67ZM29.5,1.951c.209.167.425.341.644.534-.3.227-.636.481-.986.757q-.45-.389-.885-.72c.431-.216.84-.408,1.228-.571m4.281,2.467c-.087-.1-.181-.207-.275-.312.194-.285.367-.549.509-.785a7.29,7.29,0,0,1-.235,1.1M32.746,6.986q-.329-.433-.713-.879c.276-.351.53-.684.756-.986.186.216.358.425.521.627-.163.394-.344.8-.563,1.24Zm-1.3,2.3c-.272-.394-.6-.817-.97-1.266.268-.318.532-.635.793-.954.319.38.605.749.848,1.1q-.314.546-.67,1.122Zm-1.437,2.149a15.83,15.83,0,0,0-1.14-1.553c.278-.314.546-.623.808-.926A13.49,13.49,0,0,1,30.723,10.4c-.227.34-.464.685-.717,1.039Zm-2.7,3.476-.008.006-.041.042c-.128.154-.264.31-.4.464A12.477,12.477,0,0,0,25.55,13.5c.282-.3.561-.6.835-.893a9.5,9.5,0,0,1,1.253,1.9c-.11.135-.213.267-.328.4M23.52,19.073A10.753,10.753,0,0,0,22.145,17c.035-.035.071-.068.105-.1.259-.259.5-.511.753-.765a7.132,7.132,0,0,1,1.315,2.123c-.26.273-.528.548-.8.818m-7.687,1.786c-.222-.242-.448-.485-.691-.727-.341-.341-.672-.65-.994-.94.269-.294.545-.594.827-.9.354.317.7.64,1.031.971s.649.673.97,1.031c-.221.205-.441.41-.658.609-.162-.017-.327-.038-.485-.047m2.027-1.394c-.326-.363-.657-.718-.994-1.057s-.7-.675-1.058-.994q.414-.439.843-.886c.378.337.74.672,1.08,1.011.353.358.688.718,1.015,1.085-.3.287-.591.567-.885.843Zm-2.589-6.781A6.608,6.608,0,0,1,17.421,14c-.289.291-.573.582-.849.87A11.368,11.368,0,0,0,14.5,13.478c.25-.264.514-.528.771-.793Zm3.318,4c-.353-.354-.722-.7-1.1-1.031q.418-.431.856-.872c.371.328.741.671,1.108,1.038s.708.736,1.036,1.107q-.439.433-.874.856c-.326-.366-.662-.731-1.026-1.1Zm1.479-3.628c.391.349.765.693,1.111,1.043s.689.714,1.038,1.1c-.273.277-.543.553-.824.834l-.037.037c-.332-.373-.679-.747-1.044-1.113s-.741-.713-1.113-1.045c.013-.012.024-.026.036-.036.28-.281.557-.552.834-.825Zm1.207,4.795A7.01,7.01,0,0,1,22.6,19.99c-.268.263-.535.525-.811.789A11.232,11.232,0,0,0,20.41,18.7q.435-.419.866-.85Zm1.791-3.516c-.346-.386-.689-.756-1.031-1.092s-.711-.689-1.1-1.035c.3-.289.587-.571.879-.852.364.322.729.658,1.085,1.016s.694.722,1.016,1.085c-.277.287-.562.581-.85.876Zm.693-2.821c-.35-.351-.707-.68-1.062-1q.452-.425.9-.84c.332.3.675.613,1.031.97s.675.7.968,1.031c-.273.294-.554.594-.838.9-.314-.354-.645-.711-1-1.061ZM25.4,8.025c.322.291.641.589.953.9s.612.632.9.953q-.4.448-.826.909c-.289-.322-.593-.648-.942-1s-.673-.653-1-.942q.46-.425.908-.83Zm1.842-1.619c.275.253.553.516.835.8s.545.558.8.835q-.391.454-.808.93c-.277-.3-.561-.607-.854-.9s-.6-.577-.9-.854q.473-.418.929-.809Zm1.883-1.575c.213.2.435.409.676.65s.448.459.649.675q-.385.477-.788.952-.35-.377-.727-.761c-.253-.257-.509-.5-.762-.727q.477-.41.951-.791Zm1.945-1.51c.151.144.3.285.454.436s.292.3.436.455c-.216.3-.468.627-.745.983-.173-.181-.358-.373-.557-.571s-.39-.386-.572-.558c.355-.28.688-.532.983-.749Zm2.39-1.5A9.316,9.316,0,0,1,32.666,3.2c-.1-.1-.187-.2-.287-.3s-.2-.189-.3-.286a9.555,9.555,0,0,1,1.374-.794Zm-6.234,9.889q.423-.458.826-.909a12.116,12.116,0,0,1,1.18,1.7q-.364.481-.754.977a14.169,14.169,0,0,0-1.252-1.769m3.941-9.949c-.112-.1-.223-.2-.331-.291a6.907,6.907,0,0,1,1.162-.244c-.245.148-.526.328-.829.535Zm-14.15,9.2a6.722,6.722,0,0,1,2.128,1.308c-.253.25-.505.5-.762.753-.036.035-.069.069-.105.105A10.679,10.679,0,0,0,16.2,11.755q.41-.406.815-.79M13.9,14.542a9.547,9.547,0,0,1,1.819,1.2q-.425.443-.836.88a14.532,14.532,0,0,0-1.56-1.115c.189-.309.382-.632.577-.972Zm-1.237,1.986a13.089,13.089,0,0,1,1.385.985c-.282.3-.558.6-.824.892-.434-.353-.848-.667-1.226-.917.181-.255.405-.581.664-.963Zm-.82,2.335c.182.136.372.285.568.444-.2.226-.4.45-.6.667q.033-.558.03-1.115ZM13.335,20.1c.3.269.6.553.909.859a5.891,5.891,0,0,0-2.612,1.078c.525-.617,1.1-1.266,1.7-1.941Zm6.294,1.638a14.829,14.829,0,0,0-.98-1.346q.439-.414.881-.839a7.521,7.521,0,0,1,1.316,2.1q-.227.21-.455.418-.362-.179-.762-.339Zm5.589-4.441a10.87,10.87,0,0,0-1.362-2.031c.29-.3.571-.586.849-.877a7.911,7.911,0,0,1,1.288,2.046c-.254.287-.509.573-.775.861ZM14.287,4.887c1.819,1.752.567,5.271-.815,7.93a.391.391,0,0,0-.023.041c-.112.214-.226.423-.339.627-.535.965-1.081,1.821-1.53,2.486a15.523,15.523,0,0,0-.539-2.087c3.044-4.368,3.445-7.3,3.245-9M3.723,33.705,1.569,31.55a1.208,1.208,0,0,1-.046-1.67,8.186,8.186,0,0,0,3.738,3.539l.207.069.153.049-.169.169a1.224,1.224,0,0,1-1.728,0M23.74,30.42c-1.106-2.054-2.48-3.217-4.083-3.452-1.828-.269-3.853.693-6.02,2.859C11.286,32.179,9.084,33.1,6.9,32.641a8.981,8.981,0,0,1-1.048-.3l-.218-.072A7.111,7.111,0,0,1,2.27,28.612c-.856-2.237-.077-4.583,2.317-6.976,3.681-3.683,4.515-7.018,4.555-9.193.026.05.049.1.073.153.076.158.146.312.219.477.065.15.132.3.187.441l.078.209c.035.089.069.178.1.269a14.142,14.142,0,0,1,.785,3.63,16.122,16.122,0,0,1-.2,4.23,1.206,1.206,0,0,0,.566,1.248,1.183,1.183,0,0,0,1.344-.062c1.523-1.151,3.651-1.285,6.324-.394a9.358,9.358,0,0,1,1.606.691c.06.031.118.062.191.106A6.839,6.839,0,0,1,23.74,30.42m9.093-14.528c-.788.264-1.4.421-1.951.559a15.711,15.711,0,0,0-5.667,2.621c1.036-1.086,2.011-2.176,2.9-3.236a7.822,7.822,0,0,1,4.4-.922,7.03,7.03,0,0,0,2.589-.1,9.177,9.177,0,0,1-2.264,1.079" transform="translate(0 0)"/><path class="a" d="M9.029,22.622a3.191,3.191,0,0,1-3.975.355.606.606,0,0,0-.673,1.008,4.8,4.8,0,0,0,2.551.753,4.078,4.078,0,0,0,2.954-1.261.606.606,0,1,0-.857-.858Z" transform="translate(1.162 6.344)"/><path class="a" d="M10.366,21.707a.609.609,0,1,1-.609-.611.61.61,0,0,1,.609.611" transform="translate(2.586 5.965)"/></g></svg>