<svg xmlns="http://www.w3.org/2000/svg" xmlns:xlink="http://www.w3.org/1999/xlink" width="29.394" height="43.494" viewBox="0 0 29.394 43.494"><defs><style>.a{fill:#ecc983;}.b{clip-path:url(#a);}</style><clipPath id="a"><rect class="a" width="29.394" height="43.494"/></clipPath></defs><g class="b" transform="translate(0 0)"><path class="a" d="M27.424,15.16a14.748,14.748,0,0,0-5.07-5.135.529.529,0,0,0-.1-.068,14.737,14.737,0,0,0-6.7-2.049V4.556a2.878,2.878,0,0,1,2.9-2.855.856.856,0,0,0,.859-.85A.856.856,0,0,0,18.453,0a4.593,4.593,0,0,0-4.614,4.557V7.907c-.044,0-.087,0-.13.008H13.7A14.66,14.66,0,0,0,4.32,12.141,14.323,14.323,0,0,0,0,22.4V22.9a.854.854,0,0,0,.417.73A14.676,14.676,0,0,0,2.8,24.776,14.235,14.235,0,0,0,5.589,35.138l.309.407a.857.857,0,0,0,.688.342c.027,0,.055,0,.083,0,.5-.051,1-.123,1.489-.223a12.272,12.272,0,0,0,6.493,7.562l.388.183a.85.85,0,0,0,.842-.052A12.26,12.26,0,0,0,20.27,38.44a12.078,12.078,0,0,0,1.113-3.6l.466.063a.9.9,0,0,0,.1.007.85.85,0,0,0,.1-1.7,12.971,12.971,0,0,1-3.6-.961L17.877,32c-.083-.04-.167-.083-.247-.124l-.208-.109c-.068-.036-.137-.074-.2-.111l-.705-.427c-.072-.046-.145-.093-.219-.142l-.053-.038.012-.012a.484.484,0,0,1,.046-.055c.086-.1.172-.2.256-.3.03-.037.06-.077.09-.112.07-.087.139-.172.208-.262.029-.037.059-.072.088-.112.081-.105.159-.212.237-.319l.038-.051.262-.381.064-.1c.063-.1.126-.193.187-.291l.075-.124c.06-.1.118-.2.175-.3l.062-.108c.075-.137.15-.271.221-.407l.016-.036c.066-.126.127-.252.189-.38.019-.04.04-.082.059-.126.048-.1.093-.2.138-.3l.059-.135c.049-.115.1-.231.144-.349.01-.025.022-.053.033-.078.056-.146.109-.29.161-.437.012-.033.025-.068.037-.105s.026-.077.038-.115c.005-.018.012-.033.018-.049.019-.059.037-.116.056-.174.01-.033.022-.068.033-.1l.025-.086c.008-.027.019-.057.027-.085.241.033.481.063.723.083h.022c.135.014.269.026.4.034l.071.005c.13.008.261.012.391.016l.154,0q.125,0,.25,0h.168c.127,0,.253,0,.379-.007l.163-.007c.107,0,.215-.007.321-.014l.1-.005c.141-.01.282-.025.422-.038.031,0,.064,0,.1-.007.455-.049.908-.115,1.356-.205a12.678,12.678,0,0,1-.468,3.28.847.847,0,0,0,.6,1.043.858.858,0,0,0,1.055-.591,14.374,14.374,0,0,0,.525-4.185,14.71,14.71,0,0,0,2.949-1.337.853.853,0,0,0,.416-.73V22.4a14.319,14.319,0,0,0-1.97-7.237M13.839,9.609v2.633a.859.859,0,0,0,1.717,0V9.609a13.016,13.016,0,0,1,5.4,1.571v.012c0,.135,0,.267-.007.4v.067l-.005.094c0,.093-.008.187-.014.278v.01c0,.055-.01.109-.014.164-.007.086-.014.17-.022.254-.005.06-.014.12-.021.18-.01.077-.019.159-.029.235-.008.062-.019.123-.029.186-.011.078-.023.153-.036.23s-.022.126-.034.189-.027.148-.044.224-.026.126-.04.187l-.049.22c-.016.063-.031.126-.048.186s-.037.146-.057.219-.034.123-.053.185-.041.144-.063.215-.04.122-.06.185l-.07.211c-.022.062-.044.123-.067.183s-.049.137-.075.206-.048.123-.072.183-.056.133-.083.2l-.078.182c-.03.067-.06.134-.09.2s-.056.119-.083.179l-.1.2-.09.176c-.034.064-.068.129-.1.19l-.094.174-.109.189c-.033.057-.067.113-.1.17s-.075.126-.115.187-.07.112-.105.167l-.122.183-.112.163c-.041.06-.083.119-.127.178s-.077.107-.116.16-.089.116-.134.175-.079.1-.12.153-.093.115-.141.172l-.124.149c-.049.057-.1.113-.149.17s-.085.1-.129.146-.1.112-.154.167l-.133.139c-.053.056-.109.111-.164.165l-.133.13-.175.164c-.044.042-.087.085-.133.123l-.189.165c-.044.041-.086.077-.13.113-.071.06-.142.118-.215.176-.037.033-.075.063-.112.094-.1.079-.206.161-.312.239a.147.147,0,0,0-.026.018c-.115.088-.231.168-.347.252l-.111.072c-.082.057-.163.112-.246.165-.045.029-.093.059-.139.086-.07.042-.137.087-.208.13A12.821,12.821,0,0,1,8.44,11.192V11.18a13.022,13.022,0,0,1,5.4-1.571M1.717,22.415V22.4A12.751,12.751,0,0,1,6.763,12.26a14.518,14.518,0,0,0,6.173,10.765,13.086,13.086,0,0,1-4.121.957H8.769q-.166.01-.332.016l-.082,0c-.129,0-.257.008-.387.008s-.247,0-.372-.008H7.532c-.124,0-.249-.01-.372-.018H7.134a12.987,12.987,0,0,1-5.417-1.567M6.978,34.136l-.011-.014a12.561,12.561,0,0,1-2.5-8.831c.335.079.67.149,1.009.206l.048.008.417.064c.029,0,.057.007.087.008.126.018.253.034.379.048l.115.01c.119.012.238.022.357.033l.13.01c.118.007.237.012.355.015l.124.005q.238.008.476.008c.139,0,.278,0,.414-.005l.086,0c.118,0,.235-.007.353-.012l.051,0c.336-.021.671-.051,1-.1a14.357,14.357,0,0,0,3.788,5.589l-.186.156c-.044.036-.089.071-.133.109-.127.1-.254.2-.386.293-.1.074-.2.148-.3.219-.025.014-.049.033-.075.051-.087.059-.175.118-.264.175-.016.008-.03.018-.046.027a12.977,12.977,0,0,1-5.292,1.932m9.881-.748.093.051c.031.015.062.033.1.051l.052.022q.328.16.664.3l.119.055c.052.022.105.041.156.064l.319.124c.081.027.16.059.241.086l.3.1.01,0c.055.021.109.038.163.053l.3.094.008,0c.085.023.171.049.257.071l.059.016a10.364,10.364,0,0,1-.973,3.209,10.575,10.575,0,0,1-3.385,3.966,10.566,10.566,0,0,1-5.522-6.433,14.583,14.583,0,0,0,3.34-1.568l.012-.008c.131-.086.261-.17.39-.26l.048-.03c.126-.089.252-.175.376-.268a.711.711,0,0,0,.063-.049c.067-.048.133-.1.2-.145a.493.493,0,0,1,.055-.042c.068-.053.135-.107.2-.163.019-.014.04-.033.059-.048l.191-.16c.033-.025.064-.053.1-.079.049-.044.1-.085.148-.127l.016-.016c.033.026.067.046.1.075l.262.179a.215.215,0,0,1,.033.021l.027.021c.03.021.06.038.092.06l.008.005.13.079c.09.056.179.112.269.167l.124.079.068.036q.359.213.729.4m.745-8.166c-.048.152-.1.3-.152.458l-.011.026a12.784,12.784,0,0,1-2.551,4.279,12.674,12.674,0,0,1-3.3-4.721A14.611,14.611,0,0,0,14.7,24.093c.111.056.221.112.334.165.022.008.042.018.063.027l.026.014c.081.037.161.077.242.112.041.019.085.036.126.055.07.029.138.062.208.089.049.021.1.042.149.062s.127.051.19.078l.159.06c.063.025.124.045.187.07s.107.037.16.057.131.045.2.067.1.034.153.051c.077.023.156.049.234.07.038.012.077.027.116.038l.007,0,.152.044a.863.863,0,0,0,.1.025l.1.029.007,0,0,.012m10.073-2.807h0a12.9,12.9,0,0,1-2.99,1.18.39.39,0,0,0-.053.015c-.112.029-.224.053-.338.081-.023.005-.048.008-.071.014-.108.026-.216.048-.324.067-.031.007-.062.014-.093.019-.1.019-.2.036-.308.053l-.118.019-.287.04-.149.018-.261.027-.187.018c-.075.005-.152.012-.227.016l-.246.011c-.057,0-.116.007-.175.008-.141.005-.283.01-.424.01-.107,0-.215,0-.321-.005a13.129,13.129,0,0,1-2.512-.309.076.076,0,0,1-.025,0l-.079-.019-.648-.167c-.059-.019-.118-.036-.176-.051l-.019-.007c-.2-.059-.391-.123-.582-.193l-.014,0c-.086-.029-.172-.063-.258-.094-.048-.021-.1-.037-.144-.056s-.124-.048-.187-.075c.329-.232.649-.476.961-.738l.012-.011c.087-.07.174-.145.26-.221A.846.846,0,0,0,17.76,22c.041-.034.082-.07.122-.108.026-.022.053-.049.079-.072s.067-.059.1-.092c.048-.044.094-.089.141-.135.03-.026.059-.056.088-.082s.036-.034.053-.051l.011-.012c.2-.2.388-.4.574-.6l.016-.019a14.3,14.3,0,0,0,3.689-8.552A12.852,12.852,0,0,1,27.677,22.4Z" transform="translate(0 0)"/><path class="a" d="M17.684,22.919a.863.863,0,0,0-1.146.4l-.005.011a.849.849,0,0,0,.768,1.226.861.861,0,0,0,.768-.466l.015-.034a.845.845,0,0,0-.4-1.133" transform="translate(6.038 8.384)"/><path class="a" d="M10.981,10.135a.854.854,0,0,0-.859.85v.04a.859.859,0,0,0,1.717,0v-.04a.854.854,0,0,0-.859-.85" transform="translate(3.717 3.721)"/></g></svg>