<svg xmlns="http://www.w3.org/2000/svg" xmlns:xlink="http://www.w3.org/1999/xlink" width="36.265" height="36.189" viewBox="0 0 36.265 36.189"><defs><style>.a{fill:#ecc983;}.b{clip-path:url(#a);}</style><clipPath id="a"><rect class="a" width="36.265" height="36.189" transform="translate(0 0)"/></clipPath></defs><g class="b" transform="translate(0 0)"><path class="a" d="M21.721,2.433A2.433,2.433,0,0,0,19.287,0H12.6a.613.613,0,0,0-.366.121L9.8,1.948a.606.606,0,0,0-.242.485,2.434,2.434,0,0,0,2.433,2.436h7.3a2.434,2.434,0,0,0,2.434-2.436M10.8,2.714l2-1.495h6.489a1.216,1.216,0,1,1,0,2.431h-7.3A1.218,1.218,0,0,1,10.8,2.714" transform="translate(2.377 0)"/><path class="a" d="M20.036,5.311a2.421,2.421,0,0,0,.713,1.721l5.161,5.16a2.433,2.433,0,1,0,3.442-3.439L24.62,4.018a.61.61,0,0,0-.345-.172l-3.011-.43a.6.6,0,0,0-.516.172,2.411,2.411,0,0,0-.713,1.722m1.4-.642,2.47.353L28.493,9.61a1.217,1.217,0,0,1-1.721,1.722L21.608,6.17a1.218,1.218,0,0,1-.176-1.5Z" transform="translate(4.985 0.849)"/><path class="a" d="M9.346,12.678a2.433,2.433,0,1,0,3.442-3.439L8.056,4.505a.6.6,0,0,0-.345-.172L4.7,3.9a.6.6,0,0,0-.516.172,2.435,2.435,0,0,0,0,3.443ZM4.869,5.156l2.47.353L11.927,10.1a1.217,1.217,0,1,1-1.721,1.721L5.044,6.656a1.215,1.215,0,0,1-.175-1.5" transform="translate(0.864 0.97)"/><path class="a" d="M21.258,6.556a2.49,2.49,0,0,0-3.442,0l-4.732,4.732a.6.6,0,0,0-.172.342l-.43,3.011a.605.605,0,0,0,.171.516,2.434,2.434,0,0,0,3.442,0l5.162-5.162a2.429,2.429,0,0,0,0-3.438M20.4,9.134,15.237,14.3a1.249,1.249,0,0,1-1.5.175L14.089,12l4.588-4.588a1.246,1.246,0,0,1,1.721,0,1.216,1.216,0,0,1,0,1.72" transform="translate(3.104 1.459)"/><path class="a" d="M1.9,20.743a2.41,2.41,0,0,0,1.721-.714l5.161-5.16a2.434,2.434,0,0,0,0-3.442,2.486,2.486,0,0,0-3.44,0L.611,16.157a.615.615,0,0,0-.172.343L.005,19.513a.607.607,0,0,0,.174.516,2.4,2.4,0,0,0,1.722.714m-.287-3.869L6.2,12.286a1.246,1.246,0,0,1,1.721,0,1.216,1.216,0,0,1,0,1.72L2.761,19.169a1.247,1.247,0,0,1-1.5.176Z" transform="translate(0 2.671)"/><path class="a" d="M15.877,15.589H9.185a.6.6,0,0,0-.365.122L6.387,17.537a.608.608,0,0,0-.244.486,2.434,2.434,0,0,0,2.434,2.435h7.3a2.435,2.435,0,0,0,0-4.869m0,3.651h-7.3A1.218,1.218,0,0,1,7.393,18.3l1.994-1.5h6.49a1.217,1.217,0,0,1,0,2.434" transform="translate(1.528 3.879)"/><path class="a" d="M29.03,12.666h-7.3a2.435,2.435,0,0,0,0,4.869h6.692a.611.611,0,0,0,.365-.124l2.433-1.824a.607.607,0,0,0,.244-.487,2.433,2.433,0,0,0-2.434-2.434m-.81,3.65H21.731a1.216,1.216,0,1,1,0-2.433h7.3a1.216,1.216,0,0,1,1.185.937Z" transform="translate(4.801 3.151)"/><path class="a" d="M2.733,23.383a2.434,2.434,0,0,0,2.434,2.433h6.692a.594.594,0,0,0,.365-.122l2.434-1.826a.606.606,0,0,0,.244-.485,2.434,2.434,0,0,0-2.434-2.435h-7.3a2.434,2.434,0,0,0-2.434,2.435M13.652,23.1l-2,1.5H5.167a1.216,1.216,0,0,1,0-2.433h7.3a1.217,1.217,0,0,1,1.185.937" transform="translate(0.68 5.212)"/><path class="a" d="M20.7,23.379a2.415,2.415,0,0,0-.713-1.721,2.486,2.486,0,0,0-3.44,0l-4.733,4.732a.615.615,0,0,0-.172.342l-.43,3.012a.607.607,0,0,0,.172.516,2.432,2.432,0,0,0,3.44,0L19.988,25.1a2.414,2.414,0,0,0,.713-1.718m-1.573.858L13.967,29.4a1.245,1.245,0,0,1-1.5.175l.353-2.469,4.588-4.589a1.246,1.246,0,0,1,1.721,0,1.218,1.218,0,0,1,0,1.721Z" transform="translate(2.788 5.216)"/><path class="a" d="M22.671,17.853a.594.594,0,0,0-.343-.174l-3.012-.431a.6.6,0,0,0-.516.174,2.434,2.434,0,0,0,0,3.442l5.161,5.16A2.433,2.433,0,1,0,27.4,22.584Zm3.871,7.31a1.244,1.244,0,0,1-1.721,0L19.659,20a1.217,1.217,0,0,1-.176-1.5l2.47.352,4.589,4.589a1.216,1.216,0,0,1,0,1.72" transform="translate(4.5 4.29)"/></g></svg>